# xmcd
#
# Track frame offsets: 
#        182
#        12700
#        23777
#        34962
#        45285
#        59465
#        69942
#        81175
#        93055
#        103487
#        114952
#        124775
#
# Disc length: 1828 seconds
#
# Revision: 3
# Processed by: cddbd v1.4PL0 Copyright (c) Steve Scherf et al.
# Submitted via: ExactAudioCopy v0.90b3
#
DISCID=9707220c
DTITLE=Hank Thompson - All-Time Greatest Hits
DYEAR=1900
DGENRE=Country
TTITLE0=The Wild Side Of Life
TTITLE1=Humpty Dumpty Heart
TTITLE2=Waiting In The Lobby Of Your Heart
TTITLE3=Rub-A-Dub-Dub
TTITLE4=Yesterday's Girl
TTITLE5=Wake Up Irene
TTITLE6=Honky-Tonk Girl
TTITLE7=Hangover Tavern
TTITLE8=The Blackboard Of My Heart
TTITLE9=Squaws Along The Yukon
TTITLE10=A Six Pack To Go
TTITLE11=Oklahoma Hills
EXTD=
EXTT0=
EXTT1=
EXTT2=
EXTT3=
EXTT4=
EXTT5=
EXTT6=
EXTT7=
EXTT8=
EXTT9=
EXTT10=
EXTT11=
PLAYORDER=
